<?xml version="1.0" standalone="no"?>
<!DOCTYPE svg PUBLIC "-//W3C//DTD SVG 20010904//EN"
 "http://www.w3.org/TR/2001/REC-SVG-20010904/DTD/svg10.dtd">
<svg version="1.0" xmlns="http://www.w3.org/2000/svg"
 width="84.000000pt" height="84.000000pt" viewBox="0 0 84.000000 84.000000"
 preserveAspectRatio="xMidYMid meet">
<metadata>
Created by potrace 1.14, written by Peter Selinger 2001-2017
</metadata>
<g transform="translate(0.000000,84.000000) scale(0.100000,-0.100000)"
fill="#000000" stroke="none">
<path d="M404 817 c-159 -68 -288 -187 -354 -329 -35 -74 -33 -88 26 -188 64
-110 169 -200 309 -267 l75 -35 38 28 c112 84 241 235 300 351 l21 41 -57 43
c-58 44 -162 147 -162 161 0 41 -187 -68 -282 -164 l-37 -38 61 -59 c69 -69
65 -69 152 9 l55 51 30 -22 c30 -22 30 -22 13 -51 -22 -38 -77 -96 -124 -132
-37 -27 -39 -28 -70 -13 -72 34 -228 212 -211 241 19 33 93 116 133 149 25 21
81 56 125 78 43 22 81 42 83 43 2 2 -11 26 -27 54 -17 27 -31 54 -31 61 0 14
-5 13 -66 -12z"/>
</g>
</svg>
