<svg aria-hidden="true" style="position: absolute; width: 0; height: 0; overflow: hidden;" version="1.1" xmlns="http://www.w3.org/2000/svg" xmlns:xlink="http://www.w3.org/1999/xlink">
<defs>
<symbol id="icon-kitchen" viewBox="0 0 34 32">
<path d="M23.077 30.002h-12.111c-0.22 0-0.399-0.179-0.399-0.399v-9.275c0-0.22 0.179-0.399 0.399-0.399h12.111c0.22 0 0.399 0.179 0.399 0.399v9.275c-0 0.22-0.179 0.399-0.399 0.399zM11.365 29.204h11.313v-8.477h-11.313v8.477z"></path>
<path d="M23.077 31.709h-12.111c-0.22 0-0.399-0.179-0.399-0.399v-1.707c0-0.22 0.179-0.399 0.399-0.399h12.111c0.22 0 0.399 0.179 0.399 0.399v1.707c-0 0.22-0.179 0.399-0.399 0.399zM11.365 30.911h11.313v-0.909h-11.313v0.909z"></path>
<path d="M23.077 20.727h-12.111c-0.22 0-0.399-0.179-0.399-0.399v-3.932c0-0.22 0.179-0.399 0.399-0.399h12.111c0.22 0 0.399 0.179 0.399 0.399v3.932c-0 0.22-0.179 0.399-0.399 0.399zM11.365 19.929h11.313v-3.135h-11.313v3.135z"></path>
<path d="M17.021 19.655c-0.714 0-1.293-0.579-1.293-1.293s0.579-1.293 1.293-1.293c0.714 0 1.293 0.579 1.293 1.293s-0.579 1.292-1.293 1.293zM17.021 17.867c-0.273 0-0.495 0.222-0.495 0.495s0.222 0.495 0.495 0.495c0.273 0 0.495-0.222 0.495-0.495s-0.222-0.495-0.495-0.495z"></path>
<path d="M20.38 19.655c-0.714 0-1.293-0.579-1.293-1.293s0.579-1.293 1.293-1.293c0.714 0 1.293 0.579 1.293 1.293s-0.579 1.292-1.293 1.293zM20.38 17.867c-0.273 0-0.495 0.222-0.495 0.495s0.222 0.495 0.495 0.495c0.273 0 0.495-0.222 0.495-0.495s-0.222-0.495-0.495-0.495z"></path>
<path d="M13.662 19.655c-0.714 0-1.293-0.579-1.293-1.293s0.579-1.293 1.293-1.293 1.293 0.579 1.293 1.293c-0.001 0.714-0.579 1.292-1.293 1.293zM13.662 17.867c-0.273 0-0.495 0.222-0.495 0.495s0.222 0.495 0.495 0.495c0.273 0 0.495-0.222 0.495-0.495s-0.222-0.495-0.495-0.495z"></path>
<path d="M20.735 23.059h-7.427c-0.518-0-0.938-0.42-0.938-0.939s0.42-0.938 0.938-0.938h7.427c0.518-0 0.938 0.42 0.939 0.938s-0.42 0.938-0.938 0.939c-0 0-0 0-0.001 0zM13.308 21.981c-0.078 0-0.14 0.063-0.14 0.14s0.063 0.14 0.14 0.14h7.427c0.078 0 0.14-0.063 0.14-0.14s-0.063-0.14-0.14-0.14c-0 0-0 0-0 0h-7.427z"></path>
<path d="M20.38 28.728h-6.718c-0.22 0-0.399-0.179-0.399-0.399v-5.669c0-0.22 0.179-0.399 0.399-0.399h6.718c0.22 0 0.399 0.179 0.399 0.399v5.669c0 0.22-0.179 0.399-0.399 0.399zM14.061 27.93h5.92v-4.871h-5.92v4.871z"></path>
<path d="M14.363 16.795c-0.22 0-0.399-0.179-0.399-0.399v-0.99c0-0.22 0.179-0.399 0.399-0.399s0.399 0.179 0.399 0.399v0.99c0 0.22-0.179 0.399-0.399 0.399z"></path>
<path d="M16.254 16.795c-0.22 0-0.399-0.179-0.399-0.399v-0.591h-0.532c-0.22 0-0.399-0.179-0.399-0.399s0.179-0.399 0.399-0.399h0.931c0.22 0 0.399 0.179 0.399 0.399v0.99c-0 0.22-0.179 0.399-0.399 0.399z"></path>
<path d="M12.472 16.795c-0.22 0-0.399-0.179-0.399-0.399v-0.99c0-0.22 0.179-0.399 0.399-0.399h0.931c0.22 0 0.399 0.179 0.399 0.399s-0.179 0.399-0.399 0.399h-0.532v0.591c0 0.22-0.179 0.399-0.399 0.399z"></path>
<path d="M19.68 16.795c-0.22 0-0.399-0.179-0.399-0.399v-0.99c0-0.22 0.179-0.399 0.399-0.399s0.399 0.179 0.399 0.399v0.99c0 0.22-0.179 0.399-0.399 0.399z"></path>
<path d="M17.788 16.795c-0.22 0-0.399-0.179-0.399-0.399v-0.99c0-0.22 0.179-0.399 0.399-0.399h0.931c0.22 0 0.399 0.179 0.399 0.399s-0.179 0.399-0.399 0.399h-0.532v0.591c0 0.22-0.179 0.399-0.399 0.399z"></path>
<path d="M21.571 16.795c-0.22 0-0.399-0.179-0.399-0.399v-0.591h-0.532c-0.22 0-0.399-0.179-0.399-0.399s0.179-0.399 0.399-0.399h0.931c0.22 0 0.399 0.179 0.399 0.399v0.99c-0 0.22-0.179 0.399-0.399 0.399z"></path>
<path d="M25.005 18.248h-0.714c-0.22 0-0.399-0.179-0.399-0.399s0.179-0.399 0.399-0.399h0.714c0.22 0 0.399 0.179 0.399 0.399s-0.179 0.399-0.399 0.399z"></path>
<path d="M26.219 31.709h-3.142c-0.22 0-0.399-0.179-0.399-0.399v-14.914c0-0.22 0.179-0.399 0.399-0.399h3.142c0.22 0 0.399 0.179 0.399 0.399v14.914c-0 0.22-0.179 0.399-0.399 0.399zM23.476 30.911h2.344v-14.116h-2.344v14.116z"></path>
<path d="M33.644 24.252h-7.425c-0.22 0-0.399-0.179-0.399-0.399v-7.457c0-0.22 0.179-0.399 0.399-0.399h7.425c0.22 0 0.399 0.179 0.399 0.399v7.457c0 0.22-0.179 0.399-0.399 0.399zM26.618 23.454h6.627v-6.659h-6.627v6.659z"></path>
<path d="M30.888 18.248h-1.913c-0.22 0-0.399-0.179-0.399-0.399s0.179-0.399 0.399-0.399h1.913c0.22 0 0.399 0.179 0.399 0.399s-0.179 0.399-0.399 0.399z"></path>
<path d="M6.639 18.248h-1.913c-0.22 0-0.399-0.179-0.399-0.399s0.179-0.399 0.399-0.399h1.913c0.22 0 0.399 0.179 0.399 0.399s-0.179 0.399-0.399 0.399z"></path>
<path d="M33.644 31.709h-7.425c-0.22 0-0.399-0.179-0.399-0.399v-7.457c0-0.22 0.179-0.399 0.399-0.399h7.425c0.22 0 0.399 0.179 0.399 0.399v7.457c0 0.22-0.179 0.399-0.399 0.399zM26.618 30.911h6.627v-6.659h-6.627v6.659z"></path>
<path d="M30.888 25.705h-1.913c-0.22 0-0.399-0.179-0.399-0.399s0.179-0.399 0.399-0.399h1.913c0.22 0 0.399 0.179 0.399 0.399s-0.179 0.399-0.399 0.399z"></path>
<path d="M5.682 31.709h-5.283c-0.22 0-0.399-0.179-0.399-0.399v-10.982c0-0.22 0.179-0.399 0.399-0.399h5.283c0.22 0 0.399 0.179 0.399 0.399v10.982c0 0.22-0.179 0.399-0.399 0.399zM0.798 30.911h4.486v-10.184h-4.486v10.184z"></path>
<path d="M10.966 31.709h-5.283c-0.22 0-0.399-0.179-0.399-0.399v-10.982c0-0.22 0.179-0.399 0.399-0.399h5.283c0.22 0 0.399 0.179 0.399 0.399v10.982c0 0.22-0.179 0.399-0.399 0.399zM6.081 30.911h4.486v-10.184h-4.486v10.184z"></path>
<path d="M6.944 26.882c-0.22 0-0.399-0.179-0.399-0.399v-1.328c0-0.22 0.179-0.399 0.399-0.399s0.399 0.179 0.399 0.399v1.328c0 0.22-0.179 0.399-0.399 0.399z"></path>
<path d="M4.421 26.882c-0.22 0-0.399-0.179-0.399-0.399v-1.328c0-0.22 0.179-0.399 0.399-0.399s0.399 0.179 0.399 0.399v1.328c0 0.22-0.179 0.399-0.399 0.399z"></path>
<path d="M10.966 20.727h-10.567c-0.22 0-0.399-0.179-0.399-0.399v-3.932c0-0.22 0.179-0.399 0.399-0.399h10.567c0.22 0 0.399 0.179 0.399 0.399v3.932c0 0.22-0.179 0.399-0.399 0.399zM0.798 19.929h9.769v-3.135h-9.769v3.135z"></path>
<path d="M22.627 8.435h-11.211c-0.469-0.001-0.848-0.38-0.849-0.849v-1.146c0.001-0.468 0.38-0.848 0.849-0.849h11.211c0.468 0 0.848 0.38 0.849 0.849v1.146c-0 0.468-0.38 0.848-0.849 0.849zM11.416 6.39c-0.028 0-0.051 0.023-0.051 0.051v1.146c0 0.028 0.023 0.051 0.051 0.051h11.212c0.028-0 0.051-0.023 0.051-0.051v-1.146c-0-0.028-0.023-0.051-0.051-0.051h-11.211z"></path>
<path d="M21.795 6.39h-9.548c-0.464 0-0.841-0.376-0.841-0.841 0-0.259 0.119-0.503 0.323-0.662l0.307-0.24c1.221-0.949 1.933-2.411 1.928-3.957 0-0.22 0.179-0.399 0.399-0.399h5.317c0.22 0 0.399 0.179 0.399 0.399-0.005 1.546 0.707 3.008 1.928 3.957l0.307 0.24c0.366 0.286 0.43 0.814 0.144 1.18-0.159 0.204-0.404 0.323-0.662 0.323zM14.748 1.089c-0.108 1.649-0.917 3.172-2.221 4.186l-0.307 0.24c-0.019 0.015-0.022 0.041-0.007 0.060 0.008 0.010 0.021 0.016 0.034 0.016h9.548c0.024 0 0.043-0.019 0.043-0.043 0-0.013-0.006-0.026-0.016-0.034h-0l-0.307-0.24c-1.305-1.014-2.113-2.538-2.221-4.186l-4.546-0z"></path>
<path d="M32.409 8.435h-6.349c-0.552 0-1-0.448-1-1s0.448-1 1-1h6.349c0.552 0 1 0.448 1 1s-0.448 1-1 1zM26.060 7.233c-0.111 0-0.202 0.090-0.202 0.202s0.090 0.202 0.202 0.202h6.349c0.111 0 0.202-0.090 0.202-0.202s-0.090-0.202-0.202-0.202h-6.349z"></path>
<path d="M7.982 8.435h-6.348c-0.552 0-1-0.448-1-1s0.448-1 1-1h6.348c0.552 0 1 0.448 1 1s-0.448 1-1 1zM1.634 7.233c-0.111 0-0.202 0.090-0.202 0.202s0.090 0.202 0.202 0.202h6.348c0.112 0 0.202-0.090 0.202-0.202s-0.090-0.202-0.202-0.202h-6.348z"></path>
<path d="M7.346 7.233h-1.623c-0.22 0-0.399-0.179-0.399-0.399v-1.372c0-0.22 0.179-0.399 0.399-0.399h1.623c0.22 0 0.399 0.179 0.399 0.399v1.372c0 0.22-0.179 0.399-0.399 0.399zM6.122 6.435h0.825v-0.574h-0.825v0.574z"></path>
<path d="M7.728 5.861h-2.387c-0.22 0-0.399-0.179-0.399-0.399s0.179-0.399 0.399-0.399h2.387c0.22 0 0.399 0.179 0.399 0.399s-0.179 0.399-0.399 0.399z"></path>
<path d="M3.894 7.233h-1.623c-0.22 0-0.399-0.179-0.399-0.399v-1.372c0-0.22 0.179-0.399 0.399-0.399h1.623c0.22 0 0.399 0.179 0.399 0.399v1.372c0 0.22-0.179 0.399-0.399 0.399zM2.67 6.435h0.825v-0.574h-0.825l-0 0.574z"></path>
<path d="M4.276 5.861h-2.387c-0.22 0-0.399-0.179-0.399-0.399s0.179-0.399 0.399-0.399h2.387c0.22 0 0.399 0.179 0.399 0.399s-0.179 0.399-0.399 0.399z"></path>
<path d="M7.346 5.861h-1.623c-0.22 0-0.399-0.179-0.399-0.399v-1.371c0-0.22 0.179-0.399 0.399-0.399h1.623c0.22 0 0.399 0.179 0.399 0.399v1.371c0 0.22-0.179 0.399-0.399 0.399zM6.122 5.064h0.825v-0.574h-0.825v0.574z"></path>
<path d="M7.728 4.49h-2.387c-0.22 0-0.399-0.179-0.399-0.399s0.179-0.399 0.399-0.399h2.387c0.22 0 0.399 0.179 0.399 0.399s-0.179 0.399-0.399 0.399z"></path>
<path d="M3.894 5.861h-1.623c-0.22 0-0.399-0.179-0.399-0.399v-1.371c0-0.22 0.179-0.399 0.399-0.399h1.623c0.22 0 0.399 0.179 0.399 0.399v1.371c0 0.22-0.179 0.399-0.399 0.399zM2.67 5.064h0.825v-0.574h-0.825l-0 0.574z"></path>
<path d="M4.276 4.49h-2.387c-0.22 0-0.399-0.179-0.399-0.399s0.179-0.399 0.399-0.399h2.387c0.22 0 0.399 0.179 0.399 0.399s-0.179 0.399-0.399 0.399z"></path>
<path d="M29.234 7.233c-1.422-0-2.575-1.153-2.575-2.575 0-0.484 0.137-0.959 0.394-1.369 0.073-0.116 0.201-0.186 0.338-0.186h3.685c0.137 0 0.264 0.070 0.337 0.186 0.756 1.204 0.393 2.794-0.811 3.55-0.41 0.258-0.885 0.394-1.369 0.394zM27.627 3.9c-0.418 0.888-0.038 1.946 0.85 2.364s1.946 0.038 2.364-0.85c0.226-0.479 0.226-1.035 0-1.514l-3.215-0z"></path>
<path d="M29.197 3.9c-0.22 0-0.399-0.179-0.399-0.399v-2.567c0-0.22 0.179-0.399 0.399-0.399s0.399 0.179 0.399 0.399v2.567c0 0.22-0.179 0.399-0.399 0.399z"></path>
<path d="M29.197 3.9c-0.22 0-0.399-0.179-0.399-0.399 0-0.106 0.042-0.207 0.117-0.282l1.38-1.38c0.157-0.154 0.41-0.152 0.564 0.006 0.152 0.155 0.152 0.403-0 0.558l-1.38 1.38c-0.075 0.075-0.176 0.117-0.282 0.117z"></path>
<path d="M29.197 3.9c-0.106 0-0.207-0.042-0.282-0.117l-1.38-1.38c-0.157-0.154-0.16-0.407-0.006-0.564s0.407-0.16 0.564-0.006c0.002 0.002 0.004 0.004 0.006 0.006l1.38 1.38c0.156 0.156 0.156 0.408 0 0.564-0.075 0.075-0.176 0.117-0.282 0.117z"></path>
<path d="M20.717 15.805h-1.946c-1.103-0.001-1.997-0.895-1.998-1.998v-0.938c0-0.22 0.179-0.399 0.399-0.399h5.144c0.22 0 0.399 0.179 0.399 0.399v0.938c-0.001 1.103-0.895 1.997-1.998 1.998zM17.571 13.267v0.539c0.001 0.663 0.538 1.2 1.201 1.2h1.946c0.663-0.001 1.2-0.538 1.201-1.2v-0.539h-4.347z"></path>
<path d="M23.077 13.971h-0.76c-0.22 0-0.399-0.179-0.399-0.399s0.179-0.399 0.399-0.399h0.76c0.22 0 0.399 0.179 0.399 0.399s-0.179 0.399-0.399 0.399z"></path>
<path d="M17.043 13.971h-0.76c-0.22 0-0.399-0.179-0.399-0.399s0.179-0.399 0.399-0.399h0.76c0.22 0 0.399 0.179 0.399 0.399s-0.179 0.399-0.399 0.399z"></path>
<path d="M22.317 13.267h-5.144c-0.22 0-0.399-0.179-0.399-0.399 0-0.081 0.024-0.159 0.070-0.226 0.558-0.812 1.67-1.317 2.901-1.317s2.343 0.504 2.901 1.317c0.125 0.182 0.079 0.43-0.103 0.555-0.066 0.046-0.145 0.070-0.226 0.070zM18.244 12.47h3.002c-0.948-0.461-2.054-0.461-3.002 0z"></path>
<path d="M19.257 12.154c-0.098 0-0.192-0.036-0.265-0.101-0.468-0.415-0.511-1.132-0.095-1.6s1.132-0.511 1.6-0.095c0.468 0.415 0.511 1.132 0.095 1.6-0.030 0.034-0.061 0.065-0.095 0.095-0.164 0.148-0.416 0.134-0.563-0.029s-0.134-0.416 0.029-0.563c0.001-0.001 0.003-0.002 0.004-0.003 0.139-0.123 0.152-0.335 0.029-0.473s-0.335-0.152-0.473-0.029c-0.139 0.123-0.152 0.335-0.029 0.473 0.009 0.010 0.019 0.020 0.029 0.029 0.165 0.146 0.179 0.399 0.033 0.563-0.076 0.085-0.184 0.134-0.298 0.134z"></path>
<path d="M4.733 16.795h-1.685c-0.22 0-0.399-0.179-0.399-0.399v-4.285c0-0.22 0.179-0.399 0.399-0.399h1.685c0.22 0 0.399 0.179 0.399 0.399v4.285c0 0.22-0.179 0.399-0.399 0.399zM3.447 15.997h0.887v-3.487h-0.887v3.487z"></path>
<path d="M3.048 16.795h-1.685c-0.22 0-0.399-0.179-0.399-0.399v-4.285c0-0.22 0.179-0.399 0.399-0.399h1.685c0.22 0 0.399 0.179 0.399 0.399v4.285c0 0.22-0.179 0.399-0.399 0.399zM1.762 15.997h0.887v-3.487h-0.887l-0 3.487z"></path>
<path d="M8.434 16.795h-0.752c-0.761-0.001-1.378-0.618-1.379-1.379v-1.399c0-0.22 0.179-0.399 0.399-0.399h2.713c0.22 0 0.399 0.179 0.399 0.399v1.399c-0.001 0.761-0.618 1.378-1.379 1.379zM7.1 14.416v1c0 0.321 0.26 0.581 0.581 0.581h0.752c0.321-0 0.581-0.26 0.581-0.581v-1l-1.915-0z"></path>
<path d="M9.647 14.416h-3.179c-0.416-0-0.753-0.338-0.754-0.754v-0.414c0-0.416 0.338-0.753 0.754-0.754h3.179c0.416 0 0.753 0.338 0.754 0.754v0.414c-0 0.416-0.338 0.753-0.754 0.754zM6.512 13.618h3.090v-0.325h-3.091v0.325z"></path>
<path d="M26.543 16.795h-2.054c-0.22 0-0.399-0.179-0.399-0.399v-2.807c0-0.22 0.179-0.399 0.399-0.399h2.054c0.22 0 0.399 0.179 0.399 0.399v2.807c-0 0.22-0.179 0.399-0.399 0.399zM24.888 15.997h1.256v-2.010h-1.256v2.009z"></path>
<path d="M26.543 13.987h-2.054c-0.22 0-0.399-0.179-0.399-0.399v-1.226c0-0.22 0.179-0.399 0.399-0.399h2.054c0.22 0 0.399 0.179 0.399 0.399v1.226c-0 0.22-0.179 0.399-0.399 0.399zM24.888 13.189h1.256v-0.428h-1.256v0.428z"></path>
<path d="M31.468 15.445c-0.652 0-1.162-0.627-1.162-1.428s0.511-1.428 1.162-1.428c0.652 0 1.162 0.627 1.162 1.428s-0.511 1.428-1.162 1.428zM31.468 13.386c-0.172 0-0.364 0.27-0.364 0.631s0.192 0.631 0.364 0.631 0.364-0.27 0.364-0.631c0-0.361-0.192-0.631-0.364-0.631z"></path>
<path d="M31.468 13.379c-0.186 0-0.347-0.129-0.389-0.31l-0.61-2.66c-0.126-0.552 0.218-1.101 0.77-1.228s1.101 0.218 1.228 0.77c0.035 0.151 0.035 0.307 0 0.458l-0.61 2.66c-0.042 0.181-0.203 0.31-0.389 0.31zM31.468 9.954c-0.125 0-0.227 0.101-0.227 0.227 0 0.017 0.002 0.034 0.006 0.051l0.221 0.964 0.221-0.964c0.028-0.122-0.048-0.244-0.17-0.272-0.017-0.004-0.034-0.006-0.051-0.006z"></path>
<path d="M28.598 13.379c-0.186 0-0.347-0.129-0.389-0.31l-0.61-2.66c-0.126-0.552 0.218-1.101 0.77-1.228s1.101 0.218 1.228 0.77c0.035 0.151 0.035 0.307 0 0.458l-0.61 2.66c-0.041 0.181-0.203 0.31-0.389 0.31zM28.598 9.954c-0.125 0-0.227 0.101-0.227 0.227 0 0.017 0.002 0.034 0.006 0.051l0.221 0.964 0.221-0.964c0.028-0.122-0.048-0.244-0.17-0.272-0.017-0.004-0.034-0.006-0.051-0.006z"></path>
<path d="M29.515 14.668h-1.833c-0.198 0-0.367-0.146-0.395-0.342-0.069-0.46 0.066-0.928 0.369-1.282 0.258-0.297 0.601-0.468 0.943-0.468s0.685 0.171 0.943 0.468c0.303 0.354 0.437 0.821 0.369 1.282-0.028 0.197-0.196 0.342-0.395 0.342zM28.097 13.87h1.003c-0.030-0.112-0.085-0.216-0.161-0.304-0.101-0.117-0.235-0.193-0.34-0.193s-0.239 0.076-0.34 0.193c-0.076 0.088-0.131 0.192-0.161 0.304z"></path>
</symbol>
<symbol id="icon-commode" viewBox="0 0 36 32">
<path d="M34.016 13.118h-31.669c-0.235 0-0.426-0.191-0.426-0.426v-9.263c0-0.235 0.191-0.426 0.426-0.426h31.669c0.235 0 0.426 0.191 0.426 0.426v9.263c-0 0.235-0.191 0.426-0.426 0.426zM2.773 12.266h30.817v-8.41h-30.817v8.41z"></path>
<path d="M34.016 22.381h-31.669c-0.235 0-0.426-0.191-0.426-0.426v-9.263c0-0.235 0.191-0.426 0.426-0.426h31.669c0.235 0 0.426 0.191 0.426 0.426v9.263c-0 0.235-0.191 0.426-0.426 0.426zM2.773 21.528h30.817v-8.41h-30.817v8.41z"></path>
<path d="M34.016 31.643h-31.669c-0.235 0-0.426-0.191-0.426-0.426v-9.262c0-0.235 0.191-0.426 0.426-0.426h31.669c0.235 0 0.426 0.191 0.426 0.426v9.263c-0 0.235-0.191 0.426-0.426 0.426zM2.773 30.791h30.817v-8.41h-30.817v8.41z"></path>
<path d="M18.979 8.487h-1.594c-0.235 0-0.426-0.191-0.426-0.426s0.191-0.426 0.426-0.426h1.594c0.235 0 0.426 0.191 0.426 0.426s-0.191 0.426-0.426 0.426z"></path>
<path d="M18.979 17.749h-1.594c-0.235 0-0.426-0.191-0.426-0.426s0.191-0.426 0.426-0.426h1.594c0.235 0 0.426 0.191 0.426 0.426s-0.191 0.426-0.426 0.426z"></path>
<path d="M18.979 27.012h-1.594c-0.235 0-0.426-0.191-0.426-0.426s0.191-0.426 0.426-0.426h1.594c0.235 0 0.426 0.191 0.426 0.426s-0.191 0.426-0.426 0.426z"></path>
<path d="M35.227 3.856h-34.091c-0.627-0.001-1.136-0.509-1.136-1.136v-1.226c0.001-0.627 0.509-1.136 1.136-1.136h34.091c0.627 0.001 1.136 0.509 1.136 1.136v1.226c-0.001 0.627-0.509 1.136-1.136 1.136zM1.136 1.209c-0.157 0-0.284 0.127-0.284 0.284v1.226c0 0.157 0.127 0.284 0.284 0.284h34.091c0.157-0 0.284-0.127 0.284-0.284v-1.226c-0-0.157-0.127-0.284-0.284-0.284h-34.091z"></path>
</symbol>
<symbol id="icon-bedroom-1" viewBox="0 0 32 32">
<path d="M27.099 10.803h-22.198c-0.207 0-0.375-0.168-0.375-0.375v-7.789c0-0.207 0.168-0.375 0.375-0.375h22.198c0.207 0 0.375 0.168 0.375 0.375v7.789c-0 0.207-0.168 0.375-0.375 0.375zM5.276 10.053h21.448v-7.039h-21.448v7.039z"></path>
<path d="M25.378 10.803h-18.756c-0.207 0-0.375-0.168-0.375-0.375v-6.068c0-0.207 0.168-0.375 0.375-0.375h18.756c0.207 0 0.375 0.168 0.375 0.375v6.068c0 0.207-0.168 0.375-0.375 0.375v0zM6.997 10.053h18.006v-5.318h-18.006v5.318z"></path>
<path d="M14.869 10.803h-7.116c-0.831-0.001-1.505-0.675-1.506-1.506v-3.806c0.001-0.831 0.675-1.505 1.506-1.506h7.116c0.831 0.001 1.505 0.675 1.506 1.506v3.806c-0.001 0.831-0.675 1.505-1.506 1.506v0zM7.753 4.735c-0.417 0-0.755 0.339-0.756 0.756v3.806c0 0.417 0.339 0.755 0.756 0.756h7.116c0.417-0 0.756-0.339 0.756-0.756v-3.806c-0-0.417-0.339-0.756-0.756-0.756h-7.116z"></path>
<path d="M24.247 10.803h-7.116c-0.831-0.001-1.505-0.675-1.506-1.506v-3.806c0.001-0.831 0.675-1.505 1.506-1.506h7.116c0.831 0.001 1.505 0.675 1.506 1.506v3.806c-0.001 0.831-0.675 1.505-1.506 1.506v0zM17.131 4.735c-0.417 0-0.756 0.339-0.756 0.756v3.806c0 0.417 0.339 0.755 0.756 0.756h7.116c0.417-0 0.756-0.339 0.756-0.756v-3.806c-0-0.417-0.339-0.756-0.756-0.756h-7.116z"></path>
<path d="M27.371 29.736h-22.741c-0.831-0.001-1.505-0.675-1.506-1.506v-16.671c0.001-0.831 0.675-1.505 1.506-1.506h22.741c0.831 0.001 1.505 0.675 1.506 1.506v16.671c-0.001 0.831-0.675 1.505-1.506 1.506zM4.629 10.803c-0.417 0-0.756 0.339-0.756 0.756v16.671c0 0.417 0.339 0.755 0.756 0.756h22.741c0.417-0 0.756-0.339 0.756-0.756v-16.671c-0-0.417-0.339-0.755-0.756-0.756h-22.741z"></path>
<path d="M27.515 3.014h-23.030c-0.752-0.001-1.361-0.61-1.362-1.362v-0.291c0.001-0.752 0.61-1.361 1.362-1.362h23.030c0.752 0.001 1.361 0.61 1.362 1.362v0.291c-0.001 0.752-0.61 1.361-1.362 1.362zM4.485 0.75c-0.338 0-0.611 0.274-0.612 0.612v0.291c0 0.338 0.274 0.611 0.612 0.612h23.030c0.338-0 0.611-0.274 0.612-0.612v-0.291c-0-0.338-0.274-0.611-0.612-0.612h-23.030z"></path>
<path d="M27.515 32h-23.030c-0.752-0.001-1.361-0.61-1.362-1.362v-0.291c0.001-0.752 0.61-1.361 1.362-1.362h23.030c0.752 0.001 1.361 0.61 1.362 1.362v0.291c-0.001 0.752-0.61 1.361-1.362 1.362zM4.485 29.736c-0.338 0-0.611 0.274-0.612 0.612v0.291c0 0.338 0.274 0.611 0.612 0.612h23.030c0.338-0 0.611-0.274 0.612-0.612v-0.291c-0-0.338-0.274-0.611-0.612-0.612h-23.030z"></path>
</symbol>
<symbol id="icon-facebook" viewBox="0 0 16 32">
<path d="M10.305 31.65v-15.827h4.369l0.579-5.454h-4.948l0.007-2.73c0-1.423 0.135-2.185 2.178-2.185h2.731v-5.455h-4.37c-5.249 0-7.096 2.646-7.096 7.095v3.275h-3.272v5.454h3.272v15.826h6.548z"></path>
</symbol>
<symbol id="icon-chairs" viewBox="0 0 41 32">
<path d="M31.137 17.092h-21.249c-1.021-0.001-1.848-0.828-1.849-1.849v-13.343c0.001-1.021 0.828-1.848 1.849-1.849h21.249c1.021 0.001 1.848 0.828 1.849 1.849v13.343c-0.001 1.021-0.828 1.848-1.849 1.849zM9.888 1.013c-0.49 0.001-0.887 0.397-0.887 0.887v13.343c0.001 0.49 0.398 0.887 0.887 0.887h21.249c0.49-0.001 0.887-0.398 0.887-0.887v-13.343c-0.001-0.49-0.398-0.887-0.887-0.887h-21.249z"></path>
<path d="M31.137 29.084h-21.249c-1.021-0.001-1.848-0.828-1.849-1.849v-9.256c0.001-1.021 0.828-1.848 1.849-1.849h21.249c1.021 0.001 1.848 0.828 1.849 1.849v9.256c-0.001 1.021-0.828 1.848-1.849 1.849zM9.888 17.092c-0.49 0.001-0.887 0.398-0.887 0.887v9.256c0.001 0.49 0.398 0.887 0.887 0.887h21.249c0.49-0.001 0.887-0.398 0.887-0.887v-9.256c-0.001-0.49-0.398-0.887-0.887-0.887l-21.249-0z"></path>
<path d="M39.177 29.084h-5.304c-1.021-0.001-1.848-0.828-1.849-1.849v-16.222c0.001-1.021 0.828-1.848 1.849-1.849h5.304c1.021 0.001 1.848 0.828 1.849 1.849v16.222c-0.001 1.021-0.828 1.848-1.849 1.849zM33.873 10.126c-0.49 0.001-0.887 0.398-0.887 0.887v16.222c0.001 0.49 0.398 0.887 0.887 0.887h5.304c0.49-0.001 0.887-0.398 0.887-0.887v-16.222c-0.001-0.49-0.398-0.887-0.887-0.887h-5.304z"></path>
<path d="M7.152 29.084h-5.304c-1.021-0.001-1.848-0.828-1.849-1.849v-16.222c0.001-1.021 0.828-1.848 1.849-1.849h5.304c1.021 0.001 1.848 0.828 1.849 1.849v16.222c-0.001 1.021-0.828 1.848-1.849 1.849zM1.849 10.126c-0.49 0.001-0.887 0.398-0.887 0.887v16.222c0.001 0.49 0.398 0.887 0.887 0.887h5.304c0.49-0.001 0.887-0.398 0.887-0.887v-16.222c-0.001-0.49-0.397-0.887-0.887-0.887h-5.304z"></path>
<path d="M32.505 23.088h-23.985c-0.266 0-0.481-0.215-0.481-0.481s0.215-0.481 0.481-0.481h23.985c0.265 0 0.481 0.215 0.481 0.481s-0.215 0.481-0.481 0.481z"></path>
<path d="M4.501 31.949c-0.796 0.001-1.491-0.542-1.683-1.315l-0.477-1.915c-0.064-0.258 0.092-0.518 0.35-0.583 0.038-0.009 0.077-0.014 0.116-0.014h3.388c0.265 0 0.481 0.215 0.481 0.481 0 0.039-0.005 0.078-0.014 0.116l-0.478 1.915c-0.192 0.773-0.886 1.316-1.683 1.315zM3.422 29.084l0.329 1.318c0.103 0.414 0.523 0.666 0.937 0.563 0.277-0.069 0.494-0.286 0.563-0.563l0.329-1.318h-2.157z"></path>
<path d="M36.525 31.949c-0.797 0.001-1.491-0.542-1.683-1.315l-0.477-1.915c-0.064-0.258 0.092-0.519 0.35-0.583 0.038-0.010 0.077-0.014 0.116-0.014h3.388c0.265 0 0.481 0.215 0.481 0.481 0 0.039-0.005 0.078-0.014 0.116l-0.477 1.915c-0.192 0.773-0.886 1.316-1.683 1.315zM35.447 29.084l0.329 1.318c0.103 0.414 0.523 0.666 0.937 0.563 0.277-0.069 0.494-0.286 0.563-0.563l0.329-1.318-2.157 0z"></path>
</symbol>
<symbol id="icon-wardrobe" viewBox="0 0 24 32">
<path d="M22.645 32h-20.97c-0.207 0-0.375-0.168-0.375-0.375v-31.25c0-0.207 0.168-0.375 0.375-0.375h20.97c0.207 0 0.375 0.168 0.375 0.375v31.25c-0 0.207-0.168 0.375-0.375 0.375zM2.050 31.25h20.22v-30.5h-20.22v30.5z"></path>
<path d="M12.16 22.878c-0.207 0-0.375-0.12-0.375-0.268v-22.342c0-0.148 0.168-0.268 0.375-0.268s0.375 0.12 0.375 0.268v22.342c0 0.148-0.168 0.268-0.375 0.268z"></path>
<path d="M12.16 32h-10.485c-0.207 0-0.375-0.168-0.375-0.375v-4.561c0-0.207 0.168-0.375 0.375-0.375h10.485c0.207 0 0.375 0.168 0.375 0.375v4.561c0 0.207-0.168 0.375-0.375 0.375zM2.050 31.25h9.735v-3.811h-9.735v3.811z"></path>
<path d="M12.16 27.439h-10.485c-0.207 0-0.375-0.168-0.375-0.375v-4.561c0-0.207 0.168-0.375 0.375-0.375h10.485c0.207 0 0.375 0.168 0.375 0.375v4.561c0 0.207-0.168 0.375-0.375 0.375zM2.050 26.689h9.735v-3.811h-9.735l-0 3.811z"></path>
<path d="M7.445 25.159h-1.056c-0.207 0-0.375-0.168-0.375-0.375s0.168-0.375 0.375-0.375h1.056c0.207 0 0.375 0.168 0.375 0.375s-0.168 0.375-0.375 0.375z"></path>
<path d="M9.95 12.273c-0.207 0-0.375-0.168-0.375-0.375v-0.918c0-0.207 0.168-0.375 0.375-0.375s0.375 0.168 0.375 0.375v0.918c0 0.207-0.168 0.375-0.375 0.375z"></path>
<path d="M14.37 16.834c-0.207 0-0.375-0.168-0.375-0.375v-0.918c0-0.207 0.168-0.375 0.375-0.375s0.375 0.168 0.375 0.375v0.918c0 0.207-0.168 0.375-0.375 0.375z"></path>
<path d="M7.445 29.72h-1.056c-0.207 0-0.375-0.168-0.375-0.375s0.168-0.375 0.375-0.375h1.056c0.207 0 0.375 0.168 0.375 0.375s-0.168 0.375-0.375 0.375z"></path>
</symbol>
<symbol id="icon-sofa" viewBox="0 0 38 32">
<path d="M17.777 30.163h-11.391c-0.948-0.001-1.716-0.769-1.717-1.717v-4.425c0.001-0.948 0.769-1.716 1.717-1.717h11.391c0.948 0.001 1.716 0.769 1.717 1.717v4.425c-0.001 0.948-0.769 1.716-1.717 1.717zM6.387 23.198c-0.455 0.001-0.823 0.369-0.824 0.824v4.425c0 0.455 0.369 0.823 0.824 0.824h11.391c0.455-0.001 0.823-0.369 0.824-0.824v-4.425c-0-0.455-0.369-0.823-0.824-0.824h-11.391z"></path>
<path d="M3.846 30.163h-2.129c-0.948-0.001-1.716-0.769-1.717-1.717v-8.471c0.001-0.948 0.769-1.716 1.717-1.717h2.129c0.948 0.001 1.716 0.769 1.717 1.717v8.471c-0.001 0.948-0.769 1.716-1.717 1.717zM1.717 19.152c-0.455 0-0.823 0.369-0.824 0.824v8.471c0.001 0.455 0.369 0.823 0.824 0.824h2.129c0.455-0 0.823-0.369 0.824-0.824v-8.471c-0.001-0.455-0.369-0.823-0.824-0.824h-2.129z"></path>
<path d="M32.979 26.681h-27.863c-0.247 0-0.446-0.2-0.446-0.446s0.2-0.446 0.446-0.446h27.863c0.246 0 0.446 0.2 0.446 0.446s-0.2 0.446-0.446 0.446z"></path>
<path d="M17.777 23.198h-11.391c-0.948-0.001-1.716-0.769-1.717-1.717v-6.799c0.001-0.948 0.769-1.716 1.717-1.717h11.391c0.948 0.001 1.716 0.769 1.717 1.717v6.799c-0.001 0.948-0.769 1.716-1.717 1.717zM6.387 13.858c-0.455 0.001-0.823 0.369-0.824 0.824v6.799c0 0.455 0.369 0.823 0.824 0.824h11.391c0.455-0.001 0.823-0.369 0.824-0.824v-6.799c-0-0.455-0.369-0.823-0.824-0.824l-11.391-0z"></path>
<path d="M31.709 23.198h-11.391c-0.948-0.001-1.716-0.769-1.717-1.717v-6.799c0.001-0.948 0.769-1.716 1.717-1.717h11.391c0.948 0.001 1.716 0.769 1.717 1.717v6.799c-0.001 0.948-0.769 1.716-1.717 1.717zM20.318 13.858c-0.455 0.001-0.823 0.369-0.824 0.824v6.799c0 0.455 0.369 0.823 0.824 0.824h11.391c0.455-0.001 0.823-0.369 0.824-0.824v-6.799c-0.001-0.455-0.369-0.823-0.824-0.824l-11.391-0z"></path>
<path d="M31.709 30.163h-11.391c-0.948-0.001-1.716-0.769-1.717-1.717v-4.425c0.001-0.948 0.769-1.716 1.717-1.717h11.391c0.948 0.001 1.716 0.769 1.717 1.717v4.425c-0.001 0.948-0.769 1.716-1.717 1.717zM20.318 23.198c-0.455 0.001-0.823 0.369-0.824 0.824v4.425c0 0.455 0.369 0.823 0.824 0.824h11.391c0.455-0.001 0.823-0.369 0.824-0.824v-4.425c-0.001-0.455-0.369-0.823-0.824-0.824h-11.391z"></path>
<path d="M36.378 30.163h-2.129c-0.948-0.001-1.716-0.769-1.717-1.717v-8.471c0.001-0.948 0.769-1.716 1.717-1.717h2.129c0.948 0.001 1.716 0.769 1.717 1.717v8.471c-0.001 0.948-0.769 1.716-1.717 1.717zM34.249 19.152c-0.455 0-0.823 0.369-0.824 0.824v8.471c0.001 0.455 0.369 0.823 0.824 0.824h2.129c0.455-0 0.823-0.369 0.824-0.824v-8.471c-0.001-0.455-0.369-0.823-0.824-0.824h-2.129z"></path>
<path d="M20.091 23.198h-2.087c-0.247 0-0.446-0.2-0.446-0.446s0.2-0.446 0.446-0.446h2.087c0.247 0 0.446 0.2 0.446 0.446s-0.2 0.446-0.446 0.446z"></path>
<path d="M27.219 11.672h-16.343c-0.246 0-0.446-0.2-0.446-0.446v-10.607c0-0.247 0.2-0.446 0.446-0.446h16.343c0.247 0 0.446 0.2 0.446 0.446v10.607c0 0.246-0.2 0.446-0.446 0.446zM11.322 10.779h15.45v-9.714h-15.45v9.714z"></path>
<path d="M25.732 10.185h-13.369c-0.247 0-0.446-0.2-0.446-0.446v-7.632c0-0.247 0.2-0.446 0.446-0.446h13.369c0.247 0 0.446 0.2 0.446 0.446v7.632c-0 0.247-0.2 0.446-0.446 0.446zM12.81 9.292h12.476v-6.739h-12.476v6.739z"></path>
<path d="M13.963 8.549c-0.247 0-0.446-0.2-0.446-0.446 0-0.118 0.047-0.232 0.131-0.316l2.296-2.296c0.174-0.174 0.457-0.174 0.631 0l1.393 1.393c0.174 0.174 0.174 0.457 0 0.631s-0.457 0.174-0.631 0l-1.078-1.077-1.98 1.98c-0.084 0.084-0.197 0.131-0.316 0.131z"></path>
<path d="M24.132 8.526c-0.118 0-0.232-0.047-0.316-0.131-0.543-0.543-1.086-1.087-1.63-1.63-0.612-0.611-1.223-1.222-1.834-1.834l-0.286-0.286c-0.090-0.090-0.18-0.18-0.271-0.27l-2.485 2.485c-0.174 0.174-0.457 0.174-0.631 0s-0.174-0.457 0-0.631l2.8-2.8c0.084-0.084 0.197-0.131 0.316-0.131h0c0.119 0 0.232 0.047 0.316 0.131 0.195 0.195 0.39 0.391 0.585 0.586l0.287 0.287c0.611 0.611 1.222 1.223 1.834 1.834 0.543 0.543 1.086 1.087 1.63 1.63 0.174 0.174 0.174 0.457 0 0.631-0.084 0.084-0.197 0.131-0.316 0.131z"></path>
<path d="M22.502 6.895c-0.118 0-0.232-0.047-0.316-0.131-0.612-0.611-1.224-1.223-1.834-1.834-0.127-0.127-0.165-0.318-0.097-0.485 0.388-0.947 1.47-1.399 2.416-1.012s1.399 1.47 1.012 2.416c-0.188 0.459-0.552 0.823-1.012 1.011-0.054 0.022-0.111 0.033-0.169 0.033zM21.226 4.541c0.45 0.45 0.9 0.9 1.35 1.35 0.41-0.335 0.471-0.94 0.136-1.35s-0.94-0.471-1.35-0.136c-0.050 0.041-0.095 0.086-0.136 0.136z"></path>
<path d="M35.314 31.827c-0.539 0.001-1.010-0.367-1.14-0.89l-0.277-1.112c-0.060-0.239 0.086-0.482 0.325-0.541 0.035-0.009 0.072-0.013 0.108-0.013h1.968c0.246 0 0.446 0.2 0.446 0.446 0 0.036-0.004 0.073-0.013 0.108l-0.277 1.112c-0.13 0.524-0.6 0.891-1.14 0.89zM34.902 30.163l0.139 0.558c0.038 0.151 0.19 0.243 0.341 0.205 0.101-0.025 0.18-0.104 0.205-0.205l0.139-0.558-0.825 0z"></path>
<path d="M2.781 31.827c-0.539 0.001-1.010-0.367-1.14-0.89l-0.277-1.112c-0.060-0.239 0.086-0.482 0.325-0.541 0.035-0.009 0.072-0.013 0.108-0.013h1.968c0.247 0 0.446 0.2 0.446 0.446 0 0.036-0.004 0.073-0.013 0.108l-0.277 1.112c-0.13 0.524-0.6 0.891-1.14 0.89zM2.369 30.163l0.139 0.558c0.038 0.151 0.19 0.243 0.341 0.205 0.101-0.025 0.18-0.104 0.205-0.205l0.139-0.558-0.825 0z"></path>
</symbol>
<symbol id="icon-instagram" viewBox="0 0 32 32">
<path d="M9.604 0.579c1.655-0.075 2.184-0.094 6.397-0.094h-0.005c4.215 0 4.742 0.018 6.397 0.094 1.652 0.076 2.78 0.337 3.769 0.721 1.022 0.396 1.884 0.926 2.747 1.789s1.393 1.728 1.791 2.748c0.381 0.987 0.643 2.114 0.721 3.766 0.074 1.655 0.094 2.184 0.094 6.398s-0.020 4.741-0.094 6.396c-0.078 1.651-0.339 2.779-0.721 3.766-0.398 1.020-0.928 1.886-1.791 2.748-0.862 0.863-1.726 1.394-2.746 1.791-0.987 0.384-2.116 0.645-3.768 0.721-1.655 0.075-2.182 0.094-6.396 0.094s-4.742-0.018-6.397-0.094c-1.651-0.076-2.779-0.337-3.766-0.721-1.020-0.396-1.885-0.928-2.748-1.791s-1.393-1.728-1.789-2.748c-0.383-0.987-0.645-2.114-0.721-3.766-0.075-1.655-0.094-2.182-0.094-6.396s0.019-4.743 0.093-6.398c0.074-1.651 0.336-2.779 0.721-3.766 0.398-1.020 0.928-1.886 1.791-2.748s1.728-1.393 2.748-1.789c0.987-0.384 2.114-0.645 3.766-0.721zM15.484 3.281c-0.314-0-0.604-0-0.875 0v-0.004c-2.892 0.003-3.446 0.023-4.878 0.087-1.513 0.070-2.334 0.322-2.881 0.535-0.724 0.282-1.241 0.618-1.784 1.161s-0.88 1.060-1.161 1.784c-0.212 0.547-0.465 1.368-0.534 2.881-0.074 1.636-0.089 2.124-0.089 6.268s0.015 4.635 0.089 6.27c0.069 1.513 0.322 2.334 0.534 2.88 0.282 0.724 0.618 1.24 1.161 1.783s1.060 0.879 1.784 1.16c0.547 0.212 1.368 0.465 2.881 0.535 1.636 0.074 2.127 0.090 6.27 0.090s4.634-0.016 6.269-0.090c1.513-0.069 2.334-0.321 2.881-0.535 0.724-0.281 1.24-0.617 1.783-1.16s0.88-1.058 1.161-1.782c0.212-0.546 0.465-1.367 0.534-2.88 0.074-1.636 0.091-2.127 0.091-6.268s-0.016-4.632-0.091-6.268c-0.069-1.513-0.322-2.334-0.534-2.88-0.282-0.724-0.618-1.241-1.161-1.784s-1.059-0.879-1.783-1.16c-0.547-0.212-1.368-0.465-2.881-0.534-1.636-0.074-2.127-0.089-6.269-0.089l-0.517-0zM8.034 16c0-4.4 3.568-7.968 7.968-7.968h-0c4.4 0 7.967 3.568 7.967 7.968s-3.566 7.966-7.967 7.966c-4.4 0-7.968-3.566-7.968-7.966zM21.173 16c0-2.856-2.316-5.172-5.172-5.172s-5.172 2.315-5.172 5.172c0 2.856 2.315 5.172 5.172 5.172s5.172-2.316 5.172-5.172zM22.422 7.718c0-1.028 0.834-1.861 1.862-1.861v-0.001c1.028 0 1.862 0.834 1.862 1.862s-0.834 1.862-1.862 1.862c-1.028 0-1.862-0.834-1.862-1.862z"></path>
</symbol>
<symbol id="icon-logo" viewBox="0 0 53 32">
<path fill="#44c697" style="fill: var(--color1, #44c697)" d="M13.582 12.582h24.128v-3.405h-24.128v-5.745h24.128v-3.405h-25.986c-0.864 0-1.57 0.702-1.57 1.56v16.767h3.428v-5.771z"></path>
<path fill="#1e2e36" style="fill: var(--color2, #1e2e36)" d="M41.636 0h-1.884v18.327h3.428v-16.767c0.026-0.858-0.68-1.56-1.544-1.56z"></path>
<path fill="#1e2e36" style="fill: var(--color2, #1e2e36)" d="M45.901 11.932v9.098h-38.469v-9.098h-5.469c-1.099 0-1.963 0.884-1.963 1.95v5.173c0 1.092 0.89 1.95 1.963 1.95h1.256l0.55 6.395v4.601h1.413l1.649-4.601h39.673l1.649 4.601h1.413v-4.601l0.55-6.395h1.256c1.099 0 1.963-0.884 1.963-1.95v-5.173c0-1.092-0.89-1.95-1.963-1.95h-5.469z"></path>
</symbol>
<symbol id="icon-shopping" viewBox="0 0 31 32">
<path d="M11.613 27.29c-0.178 0-0.323 0.144-0.323 0.323s0.144 0.323 0.323 0.323c0.178 0 0.323-0.144 0.323-0.323s-0.144-0.323-0.323-0.323zM9.355 27.613c0-1.247 1.011-2.258 2.258-2.258s2.258 1.011 2.258 2.258c0 1.247-1.011 2.258-2.258 2.258s-2.258-1.011-2.258-2.258z"></path>
<path d="M25.806 27.29c-0.178 0-0.323 0.144-0.323 0.323s0.144 0.323 0.323 0.323c0.178 0 0.323-0.144 0.323-0.323s-0.144-0.323-0.323-0.323zM23.548 27.613c0-1.247 1.011-2.258 2.258-2.258s2.258 1.011 2.258 2.258c0 1.247-1.011 2.258-2.258 2.258s-2.258-1.011-2.258-2.258z"></path>
<path d="M0.323 1.806c0-0.534 0.433-0.968 0.968-0.968h5.161c0.461 0 0.858 0.326 0.949 0.778l1.136 5.674h21.141c0.288 0 0.562 0.129 0.746 0.351s0.259 0.515 0.205 0.798l-2.066 10.833c-0.162 0.817-0.607 1.551-1.255 2.073-0.646 0.52-1.454 0.797-2.283 0.784h-12.525c-0.829 0.014-1.637-0.264-2.283-0.784-0.648-0.522-1.093-1.255-1.255-2.072l-2.157-10.779c-0.008-0.030-0.014-0.060-0.018-0.092l-1.127-5.629h-4.368c-0.534 0-0.968-0.433-0.968-0.968zM8.924 9.226l1.935 9.67c0.074 0.371 0.276 0.705 0.571 0.942s0.664 0.364 1.042 0.356l0.019-0 12.561 0c0.378 0.007 0.747-0.119 1.042-0.356 0.294-0.237 0.496-0.569 0.57-0.939l0.001-0.003 1.844-9.67h-19.584z"></path>
</symbol>
<symbol id="icon-smartphone" viewBox="0 0 32 32">
<path stroke-linejoin="round" stroke-linecap="round" stroke-miterlimit="4" stroke-width="2" d="M22.667 2.667h-13.333c-1.473 0-2.667 1.194-2.667 2.667v21.333c0 1.473 1.194 2.667 2.667 2.667h13.333c1.473 0 2.667-1.194 2.667-2.667v-21.333c0-1.473-1.194-2.667-2.667-2.667z"></path>
<path stroke-linejoin="round" stroke-linecap="round" stroke-miterlimit="4" stroke-width="2" d="M16 24h0.013"></path>
</symbol>
<symbol id="icon-telegram" viewBox="0 0 37 32">
<path d="M14.608 20.326l0-0.001 15.619-14.095c0.685-0.608-0.15-0.905-1.060-0.353l-19.277 12.161-8.326-2.599c-1.798-0.551-1.811-1.786 0.404-2.675l32.446-12.511c1.482-0.673 2.912 0.356 2.346 2.624l-5.526 26.039c-0.386 1.85-1.504 2.293-3.053 1.438l-8.417-6.219-4.046 3.934c-0.013 0.012-0.025 0.025-0.038 0.037-0.453 0.44-0.827 0.805-1.646 0.805l0.573-8.586z"></path>
</symbol>
<symbol id="icon-logo-footer" viewBox="0 0 30 32">
<path fill="#ffd001" style="fill: var(--color3, #ffd001)" d="M16.925 0c-7.737 2.633-14.264 8.001-16.925 16 2.631 7.907 9.096 13.336 16.925 16 6.962-5.416 10.758-9.766 13.551-16-4.009-2.716-5.693-4.114-8.943-8.317-4.354 2.041-8.145 4.419-11.502 8.23 1.205 1.732 3.205 3.349 4.823 4.677 2.357-1.748 4.155-3.451 5.319-4.912 0.73 0.9 1.553 1.499 2.338 2-2.025 3.477-4.298 5.386-7.105 7.209-4.216-2.252-7.605-6.15-9.252-9.447 3.087-5.136 7.929-8.604 13.431-10.537-0.891-1.575-2.060-3.042-2.66-4.903z"></path>
</symbol>
<symbol id="icon-logo-footer-bead" viewBox="0 0 53 32">
<path fill="#44c697" style="fill: var(--color1, #44c697)" d="M13.582 12.582h24.128v-3.405h-24.128v-5.745h24.128v-3.405h-25.986c-0.864 0-1.57 0.702-1.57 1.56v16.767h3.428v-5.771z"></path>
<path fill="#fff" style="fill: var(--color2, #fff)" d="M41.636 0h-1.884v18.327h3.428v-16.767c0.026-0.858-0.68-1.56-1.544-1.56z"></path>
<path fill="#fff" style="fill: var(--color2, #fff)" d="M45.901 11.932v9.098h-38.469v-9.098h-5.469c-1.099 0-1.963 0.884-1.963 1.95v5.173c0 1.092 0.89 1.95 1.963 1.95h1.256l0.55 6.395v4.601h1.413l1.649-4.601h39.673l1.649 4.601h1.413v-4.601l0.55-6.395h1.256c1.099 0 1.963-0.884 1.963-1.95v-5.173c0-1.092-0.89-1.95-1.963-1.95h-5.469z"></path>
</symbol>
<symbol id="icon-location" viewBox="0 0 27 32">
<path fill="#fff" style="fill: var(--color1, #fff)" d="M13.333 2.333c-2.917 0-5.715 1.159-7.778 3.222s-3.222 4.861-3.222 7.778c0 4.265 2.766 8.354 5.726 11.479 1.46 1.541 2.923 2.801 4.022 3.676 0.51 0.406 0.939 0.728 1.252 0.955 0.313-0.227 0.742-0.549 1.252-0.955 1.099-0.875 2.562-2.135 4.022-3.676 2.96-3.125 5.726-7.214 5.726-11.479 0-2.917-1.159-5.715-3.222-7.778s-4.861-3.222-7.778-3.222zM13.333 30.667c-0.555 0.832-0.555 0.832-0.555 0.832l-0.041-0.028c-0.025-0.017-0.061-0.042-0.108-0.074-0.093-0.064-0.227-0.159-0.397-0.281-0.339-0.245-0.821-0.603-1.397-1.062-1.151-0.916-2.688-2.239-4.228-3.865-3.040-3.209-6.274-7.786-6.274-12.854 0-3.448 1.37-6.754 3.808-9.192s5.745-3.808 9.192-3.808c3.448 0 6.754 1.37 9.192 3.808s3.808 5.745 3.808 9.192c0 5.069-3.234 9.646-6.274 12.854-1.54 1.626-3.077 2.949-4.228 3.865-0.576 0.459-1.057 0.817-1.397 1.062-0.17 0.123-0.304 0.217-0.397 0.281-0.047 0.032-0.083 0.057-0.108 0.074l-0.038 0.025-0.003 0.002c0 0-0.001 0.001-0.556-0.831zM13.333 30.667l0.555 0.832c-0.336 0.224-0.774 0.224-1.11-0l0.555-0.832z"></path>
<path fill="#fff" style="fill: var(--color1, #fff)" d="M13.333 10.333c-1.657 0-3 1.343-3 3s1.343 3 3 3c1.657 0 3-1.343 3-3s-1.343-3-3-3zM8.333 13.333c0-2.761 2.239-5 5-5s5 2.239 5 5c0 2.761-2.239 5-5 5s-5-2.239-5-5z"></path>
</symbol>
<symbol id="icon-calendar" viewBox="0 0 29 32">
<path fill="#fff" style="fill: var(--color2, #fff)" d="M4.364 5.455c-1.004 0-1.818 0.814-1.818 1.818v20.364c0 1.004 0.814 1.818 1.818 1.818h20.364c1.004 0 1.818-0.814 1.818-1.818v-20.364c0-1.004-0.814-1.818-1.818-1.818h-20.364zM0.364 7.273c0-2.209 1.791-4 4-4h20.364c2.209 0 4 1.791 4 4v20.364c0 2.209-1.791 4-4 4h-20.364c-2.209 0-4-1.791-4-4v-20.364z"></path>
<path fill="#fff" style="fill: var(--color2, #fff)" d="M20.364 0.364c0.602 0 1.091 0.488 1.091 1.091v5.818c0 0.603-0.488 1.091-1.091 1.091s-1.091-0.488-1.091-1.091v-5.818c0-0.603 0.488-1.091 1.091-1.091z"></path>
<path fill="#fff" style="fill: var(--color2, #fff)" d="M8.727 0.364c0.602 0 1.091 0.488 1.091 1.091v5.818c0 0.603-0.488 1.091-1.091 1.091s-1.091-0.488-1.091-1.091v-5.818c0-0.603 0.488-1.091 1.091-1.091z"></path>
<path fill="#fff" style="fill: var(--color2, #fff)" d="M0.364 13.091c0-0.602 0.488-1.091 1.091-1.091h26.182c0.602 0 1.091 0.488 1.091 1.091s-0.488 1.091-1.091 1.091h-26.182c-0.603 0-1.091-0.488-1.091-1.091z"></path>
</symbol>
<symbol id="icon-flesh" viewBox="0 0 32 32">
<path d="M24.707 11.293c0.391 0.391 0.391 1.024 0 1.414l-8 8c-0.391 0.391-1.024 0.391-1.414 0l-8-8c-0.391-0.391-0.391-1.024 0-1.414s1.024-0.391 1.414 0l7.293 7.293 7.293-7.293c0.391-0.391 1.024-0.391 1.414 0z"></path>
</symbol>
<symbol id="icon-flesh-footer" viewBox="0 0 28 32">
<path fill="#fff" style="fill: var(--color1, #fff)" d="M15.479 1.005c-0.694-0.694-1.82-0.694-2.514 0l-11.314 11.314c-0.694 0.694-0.694 1.82 0 2.514s1.82 0.694 2.514 0l10.057-10.057 10.057 10.057c0.694 0.694 1.82 0.694 2.514 0s0.694-1.82 0-2.514l-11.314-11.314zM16 30.545v-28.283h-3.556v28.283h3.556z"></path>
</symbol>
</defs>
</svg>
